# Blender 4.2.2 LTS
# www.blender.org
o SOAHP-Ch2-03-10
v 30.000000 0.000000 0.000000
v 0.000000 -0.000000 -0.000000
v -0.000000 0.000000 17.000000
v 0.000000 -0.000000 1.000000
v 0.000000 -0.000000 2.000000
v 0.000000 -0.000000 3.000000
v 0.000000 -0.000000 7.000000
v 0.000000 -0.000000 8.000000
v -0.000000 0.000000 9.000000
v -0.000000 0.000000 10.000000
v -0.000000 0.000000 11.000000
v -0.000000 0.000000 12.000000
v -0.000000 0.000000 13.000000
v -0.000000 0.000000 14.000000
v -0.000000 0.000000 15.000000
v -0.000000 0.000000 16.000000
v 30.000000 0.000000 1.000000
v 30.000000 0.000000 2.000000
v 30.000000 0.000000 3.000000
v 1.000000 0.000000 17.000000
v 2.000000 0.000000 17.000000
v 3.000000 0.000000 17.000000
v 4.000000 0.000000 17.000000
v 5.000000 0.000000 17.000000
v 29.000000 -0.000000 0.000000
v 28.000000 -0.000000 0.000000
v 27.000000 -0.000000 0.000000
v 26.000000 -0.000000 0.000000
v 25.000000 -0.000000 0.000000
v 24.000000 -0.000000 0.000000
v 8.000000 -0.000000 0.000000
v 7.000000 -0.000000 0.000000
v 6.000000 -0.000000 0.000000
v 5.000000 -0.000000 0.000000
v 4.000000 -0.000000 0.000000
v 3.000000 -0.000000 0.000000
v 2.000000 -0.000000 0.000000
v 1.000000 -0.000000 -0.000000
v 5.000000 0.000000 16.000000
v 4.000000 0.000000 16.000000
v 3.000000 0.000000 16.000000
v 2.000000 0.000000 16.000000
v 1.000000 0.000000 16.000000
v 5.000000 0.000000 15.000001
v 4.000000 0.000000 15.000000
v 3.000000 0.000000 15.000001
v 2.000000 0.000000 15.000000
v 1.000000 0.000000 15.000000
v 5.000000 0.000000 14.000000
v 4.000000 0.000000 14.000000
v 3.000000 0.000000 14.000000
v 2.000000 0.000000 14.000000
v 1.000000 0.000000 14.000000
v 5.000000 0.000000 13.000001
v 4.000000 0.000000 13.000000
v 3.000000 0.000000 13.000001
v 2.000000 0.000000 13.000000
v 1.000000 0.000000 13.000001
v 4.000000 0.000000 12.000000
v 3.000000 0.000000 12.000000
v 2.000000 0.000000 12.000000
v 1.000000 0.000000 12.000000
v 4.000000 0.000000 11.000000
v 3.000000 0.000000 11.000002
v 2.000000 0.000000 11.000000
v 1.000000 0.000000 11.000000
v 4.000000 0.000000 10.000000
v 3.000000 0.000000 10.000000
v 2.000000 0.000000 10.000000
v 1.000000 0.000000 10.000000
v 3.000000 0.000000 9.000000
v 2.000000 0.000000 9.000000
v 1.000000 0.000000 9.000002
v 3.000000 -0.000000 8.000000
v 2.000000 -0.000000 8.000000
v 1.000000 -0.000000 8.000000
v 2.000000 -0.000000 7.000000
v 1.000000 -0.000000 7.000000
v 29.000000 0.000000 3.000000
v 28.000000 0.000000 3.000000
v 27.000002 0.000000 3.000000
v 26.000000 0.000000 3.000000
v 25.000002 0.000000 3.000000
v 24.000000 0.000000 3.000000
v 8.000000 -0.000000 3.000000
v 7.000000 -0.000000 3.000000
v 6.000000 -0.000000 3.000000
v 5.000000 -0.000000 3.000000
v 4.000000 -0.000000 3.000000
v 3.000000 -0.000000 3.000000
v 2.000000 -0.000000 3.000000
v 1.000000 -0.000000 3.000000
v 29.000000 0.000000 2.000000
v 28.000000 0.000000 2.000000
v 27.000002 0.000000 2.000000
v 26.000000 0.000000 2.000000
v 25.000000 -0.000000 2.000000
v 24.000000 -0.000000 2.000000
v 8.000000 -0.000000 2.000000
v 7.000000 -0.000000 2.000000
v 6.000000 -0.000000 2.000000
v 5.000000 -0.000000 2.000000
v 4.000000 -0.000000 2.000000
v 3.000000 -0.000000 2.000000
v 2.000000 -0.000000 2.000000
v 1.000000 -0.000000 2.000000
v 29.000000 0.000000 1.000000
v 28.000000 -0.000000 1.000000
v 27.000002 -0.000000 1.000000
v 26.000000 -0.000000 1.000000
v 25.000002 -0.000000 1.000000
v 24.000000 -0.000000 1.000000
v 8.000000 -0.000000 1.000000
v 7.000000 -0.000000 1.000000
v 6.000000 -0.000000 1.000000
v 5.000000 -0.000000 1.000000
v 4.000000 -0.000000 1.000000
v 3.000000 -0.000000 1.000000
v 2.000000 -0.000000 1.000000
v 1.000000 -0.000000 1.000000
v 9.000000 -0.000000 0.000000
v 9.000000 -0.000000 3.000000
v 9.000000 -0.000000 2.000000
v 9.000000 -0.000000 1.000000
v 10.000000 -0.000000 0.000000
v 10.000000 -0.000000 3.000000
v 10.000000 -0.000000 2.000000
v 10.000000 -0.000000 1.000000
v 23.000000 -0.000000 0.000000
v 23.000000 0.000000 3.000000
v 23.000000 -0.000000 2.000000
v 23.000000 -0.000000 1.000000
vn -0.0000 -1.0000 -0.0000
vt 0.000000 0.000000
s 0
f 79/1/1 93/1/1 18/1/1 19/1/1
f 93/1/1 107/1/1 17/1/1 18/1/1
f 107/1/1 25/1/1 1/1/1 17/1/1
f 80/1/1 94/1/1 93/1/1 79/1/1
f 94/1/1 108/1/1 107/1/1 93/1/1
f 108/1/1 26/1/1 25/1/1 107/1/1
f 81/1/1 95/1/1 94/1/1 80/1/1
f 95/1/1 109/1/1 108/1/1 94/1/1
f 109/1/1 27/1/1 26/1/1 108/1/1
f 82/1/1 96/1/1 95/1/1 81/1/1
f 96/1/1 110/1/1 109/1/1 95/1/1
f 110/1/1 28/1/1 27/1/1 109/1/1
f 83/1/1 97/1/1 96/1/1 82/1/1
f 97/1/1 111/1/1 110/1/1 96/1/1
f 111/1/1 29/1/1 28/1/1 110/1/1
f 84/1/1 98/1/1 97/1/1 83/1/1
f 98/1/1 112/1/1 111/1/1 97/1/1
f 112/1/1 30/1/1 29/1/1 111/1/1
f 86/1/1 100/1/1 99/1/1 85/1/1
f 100/1/1 114/1/1 113/1/1 99/1/1
f 114/1/1 32/1/1 31/1/1 113/1/1
f 87/1/1 101/1/1 100/1/1 86/1/1
f 101/1/1 115/1/1 114/1/1 100/1/1
f 115/1/1 33/1/1 32/1/1 114/1/1
f 88/1/1 102/1/1 101/1/1 87/1/1
f 102/1/1 116/1/1 115/1/1 101/1/1
f 116/1/1 34/1/1 33/1/1 115/1/1
f 23/1/1 40/1/1 39/1/1 24/1/1
f 40/1/1 45/1/1 44/1/1 39/1/1
f 45/1/1 50/1/1 49/1/1 44/1/1
f 50/1/1 55/1/1 54/1/1 49/1/1
f 89/1/1 103/1/1 102/1/1 88/1/1
f 103/1/1 117/1/1 116/1/1 102/1/1
f 117/1/1 35/1/1 34/1/1 116/1/1
f 22/1/1 41/1/1 40/1/1 23/1/1
f 41/1/1 46/1/1 45/1/1 40/1/1
f 46/1/1 51/1/1 50/1/1 45/1/1
f 51/1/1 56/1/1 55/1/1 50/1/1
f 56/1/1 60/1/1 59/1/1 55/1/1
f 60/1/1 64/1/1 63/1/1 59/1/1
f 64/1/1 68/1/1 67/1/1 63/1/1
f 90/1/1 104/1/1 103/1/1 89/1/1
f 104/1/1 118/1/1 117/1/1 103/1/1
f 118/1/1 36/1/1 35/1/1 117/1/1
f 21/1/1 42/1/1 41/1/1 22/1/1
f 42/1/1 47/1/1 46/1/1 41/1/1
f 47/1/1 52/1/1 51/1/1 46/1/1
f 52/1/1 57/1/1 56/1/1 51/1/1
f 57/1/1 61/1/1 60/1/1 56/1/1
f 61/1/1 65/1/1 64/1/1 60/1/1
f 65/1/1 69/1/1 68/1/1 64/1/1
f 69/1/1 72/1/1 71/1/1 68/1/1
f 72/1/1 75/1/1 74/1/1 71/1/1
f 91/1/1 105/1/1 104/1/1 90/1/1
f 105/1/1 119/1/1 118/1/1 104/1/1
f 119/1/1 37/1/1 36/1/1 118/1/1
f 20/1/1 43/1/1 42/1/1 21/1/1
f 43/1/1 48/1/1 47/1/1 42/1/1
f 48/1/1 53/1/1 52/1/1 47/1/1
f 53/1/1 58/1/1 57/1/1 52/1/1
f 58/1/1 62/1/1 61/1/1 57/1/1
f 62/1/1 66/1/1 65/1/1 61/1/1
f 66/1/1 70/1/1 69/1/1 65/1/1
f 70/1/1 73/1/1 72/1/1 69/1/1
f 73/1/1 76/1/1 75/1/1 72/1/1
f 76/1/1 78/1/1 77/1/1 75/1/1
f 92/1/1 106/1/1 105/1/1 91/1/1
f 106/1/1 120/1/1 119/1/1 105/1/1
f 120/1/1 38/1/1 37/1/1 119/1/1
f 3/1/1 16/1/1 43/1/1 20/1/1
f 16/1/1 15/1/1 48/1/1 43/1/1
f 15/1/1 14/1/1 53/1/1 48/1/1
f 14/1/1 13/1/1 58/1/1 53/1/1
f 13/1/1 12/1/1 62/1/1 58/1/1
f 12/1/1 11/1/1 66/1/1 62/1/1
f 11/1/1 10/1/1 70/1/1 66/1/1
f 10/1/1 9/1/1 73/1/1 70/1/1
f 9/1/1 8/1/1 76/1/1 73/1/1
f 8/1/1 7/1/1 78/1/1 76/1/1
f 6/1/1 5/1/1 106/1/1 92/1/1
f 5/1/1 4/1/1 120/1/1 106/1/1
f 4/1/1 2/1/1 38/1/1 120/1/1
f 113/1/1 31/1/1 121/1/1 124/1/1
f 99/1/1 113/1/1 124/1/1 123/1/1
f 85/1/1 99/1/1 123/1/1 122/1/1
f 124/1/1 121/1/1 125/1/1 128/1/1
f 123/1/1 124/1/1 128/1/1 127/1/1
f 122/1/1 123/1/1 127/1/1 126/1/1
f 30/1/1 112/1/1 132/1/1 129/1/1
f 112/1/1 98/1/1 131/1/1 132/1/1
f 98/1/1 84/1/1 130/1/1 131/1/1
