# Blender 4.2.2 LTS
# www.blender.org
o SOAHP-Ch2-01
v 30.000000 0.000000 0.000000
v 0.000000 -0.000000 -0.000000
v 30.000000 0.000000 17.000000
v -0.000000 0.000000 17.000000
v 20.000000 -0.000000 0.000000
v 10.000000 -0.000000 -0.000000
v 9.000000 -0.000000 0.000000
v 8.000000 -0.000000 0.000000
v 7.000000 -0.000000 0.000000
v 6.000000 -0.000000 0.000000
v 5.000000 -0.000000 0.000000
v 4.000000 -0.000000 0.000000
v 3.000000 -0.000000 0.000000
v 2.000000 -0.000000 0.000000
v 1.000000 -0.000000 0.000000
v 29.000000 -0.000000 0.000000
v 28.000000 -0.000000 0.000000
v 27.000000 -0.000000 0.000000
v 26.000000 -0.000000 0.000000
v 25.000000 -0.000000 0.000000
v 24.000000 -0.000000 0.000000
v 23.000000 -0.000000 0.000000
v 22.000000 -0.000000 0.000000
v 21.000000 -0.000000 0.000000
v 19.000000 -0.000000 -0.000000
v 18.000000 -0.000000 0.000000
v 17.000000 -0.000000 0.000000
v 16.000000 -0.000000 0.000000
v 15.000000 -0.000000 0.000000
v 14.000000 -0.000000 0.000000
v 13.000000 -0.000000 0.000000
v 12.000000 -0.000000 0.000000
v 11.000000 -0.000000 -0.000000
v 24.000000 0.000000 17.000000
v 25.000000 0.000000 17.000000
v 26.000000 0.000000 17.000000
v 27.000000 0.000000 17.000000
v 28.000000 0.000000 17.000000
v 29.000000 0.000000 17.000000
v 1.000000 0.000000 17.000000
v 2.000000 0.000000 17.000000
v 3.000000 0.000000 17.000000
v 4.000000 0.000000 17.000000
v 5.000000 0.000000 17.000000
v 30.000000 0.000000 16.000000
v 30.000000 0.000000 15.000000
v 30.000000 0.000000 14.000000
v 30.000000 0.000000 13.000000
v 30.000000 0.000000 12.000000
v 30.000000 0.000000 11.000000
v 30.000000 0.000000 10.000000
v 30.000000 0.000000 9.000000
v 30.000000 0.000000 8.000000
v 30.000000 0.000000 7.000000
v 30.000000 0.000000 3.000000
v 30.000000 0.000000 2.000000
v 30.000000 0.000000 1.000000
v 0.000000 -0.000000 1.000000
v 0.000000 -0.000000 2.000000
v 0.000000 -0.000000 3.000000
v 0.000000 -0.000000 4.000000
v 0.000000 -0.000000 5.000000
v 0.000000 -0.000000 6.000000
v 0.000000 -0.000000 7.000000
v 0.000000 -0.000000 8.000000
v -0.000000 0.000000 9.000000
v -0.000000 0.000000 10.000000
v -0.000000 0.000000 11.000000
v -0.000000 0.000000 12.000000
v -0.000000 0.000000 13.000000
v -0.000000 0.000000 14.000000
v -0.000000 0.000000 15.000000
v -0.000000 0.000000 16.000000
v 29.000000 0.000000 1.000000
v 29.000000 0.000000 2.000000
v 29.000000 0.000000 3.000000
v 29.000000 0.000000 7.000000
v 29.000000 0.000000 8.000000
v 29.000000 0.000000 9.000000
v 29.000000 0.000000 9.999999
v 29.000000 0.000000 11.000000
v 29.000000 0.000000 11.999999
v 29.000000 0.000000 13.000000
v 29.000000 0.000000 14.000000
v 29.000000 0.000000 15.000000
v 29.000000 0.000000 16.000000
v 28.000000 -0.000000 1.000000
v 28.000000 0.000000 2.000000
v 28.000000 0.000000 3.000000
v 28.000000 0.000000 7.000000
v 28.000000 0.000000 8.000000
v 28.000000 0.000000 9.000000
v 28.000000 0.000000 10.000000
v 28.000000 0.000000 11.000000
v 28.000000 0.000000 12.000000
v 28.000000 0.000000 13.000000
v 28.000000 0.000000 14.000000
v 28.000000 0.000000 15.000000
v 28.000000 0.000000 16.000000
v 27.000000 -0.000000 1.000000
v 27.000000 0.000000 2.000000
v 27.000000 0.000000 3.000000
v 27.000000 0.000000 8.000000
v 27.000000 0.000000 8.999999
v 27.000000 0.000000 10.000000
v 27.000000 0.000000 11.000000
v 27.000000 0.000000 11.999999
v 27.000000 0.000000 13.000000
v 27.000000 0.000000 13.999999
v 27.000000 0.000000 15.000000
v 27.000000 0.000000 16.000000
v 26.000000 -0.000000 1.000000
v 26.000000 0.000000 2.000000
v 26.000000 0.000000 3.000000
v 26.000000 0.000000 9.000000
v 26.000000 0.000000 10.000000
v 26.000000 0.000000 11.000000
v 26.000000 0.000000 12.000000
v 26.000000 0.000000 13.000000
v 26.000000 0.000000 14.000000
v 26.000000 0.000000 15.000000
v 26.000000 0.000000 16.000000
v 25.000000 -0.000000 1.000000
v 25.000000 -0.000000 2.000000
v 25.000000 0.000000 3.000000
v 25.000000 0.000000 12.000000
v 25.000000 0.000000 13.000000
v 25.000000 0.000000 14.000000
v 25.000000 0.000000 15.000000
v 25.000000 0.000000 16.000000
v 24.000000 -0.000000 1.000000
v 24.000000 -0.000000 2.000000
v 24.000000 0.000000 3.000000
v 24.000000 0.000000 15.000000
v 24.000000 0.000000 16.000000
v 23.000000 -0.000000 1.000000
v 23.000000 -0.000000 2.000000
v 23.000000 -0.000000 3.000000
v 22.000000 -0.000000 1.000000
v 22.000000 -0.000000 2.000000
v 22.000000 -0.000000 3.000000
v 21.000000 -0.000000 1.000000
v 21.000000 -0.000000 2.000000
v 21.000000 -0.000000 3.000000
v 20.000000 -0.000000 1.000000
v 20.000000 -0.000000 2.000000
v 20.000000 -0.000000 3.000000
v 19.000000 -0.000000 1.000000
v 19.000000 -0.000000 2.000000
v 19.000000 -0.000000 3.000000
v 18.000000 -0.000000 1.000000
v 17.999998 -0.000000 2.000000
v 18.000000 -0.000000 3.000000
v 17.000000 -0.000000 1.000000
v 17.000000 -0.000000 2.000000
v 17.000000 -0.000000 3.000000
v 16.000000 -0.000000 1.000000
v 16.000000 -0.000000 2.000000
v 16.000000 -0.000000 3.000000
v 15.000000 -0.000000 1.000000
v 15.000000 -0.000000 2.000000
v 15.000000 -0.000000 3.000000
v 14.000000 -0.000000 1.000000
v 14.000000 -0.000000 2.000000
v 14.000000 -0.000000 3.000000
v 13.000000 -0.000000 1.000000
v 13.000000 -0.000000 2.000000
v 13.000000 -0.000000 3.000000
v 12.000000 -0.000000 1.000000
v 12.000000 -0.000000 2.000000
v 12.000000 -0.000000 3.000000
v 11.000000 -0.000000 1.000000
v 11.000000 -0.000000 2.000000
v 11.000000 -0.000000 3.000000
v 10.000000 -0.000000 1.000000
v 10.000000 -0.000000 2.000000
v 10.000000 -0.000000 3.000000
v 9.000000 -0.000000 1.000000
v 9.000000 -0.000000 2.000000
v 9.000000 -0.000000 3.000000
v 8.000000 -0.000000 1.000000
v 8.000000 -0.000000 2.000000
v 8.000000 -0.000000 3.000000
v 7.000000 -0.000000 1.000000
v 7.000000 -0.000000 2.000000
v 7.000000 -0.000000 3.000000
v 6.000000 -0.000000 1.000000
v 5.999996 -0.000000 2.000000
v 6.000000 -0.000000 3.000000
v 5.000000 -0.000000 1.000000
v 5.000000 -0.000000 2.000000
v 5.000000 -0.000000 3.000000
v 5.000000 0.000000 15.000000
v 5.000000 0.000000 16.000000
v 4.000000 -0.000000 1.000000
v 4.000000 -0.000000 2.000000
v 4.000000 -0.000000 3.000000
v 4.000000 0.000000 12.000000
v 4.000000 0.000000 13.000000
v 4.000000 0.000000 14.000000
v 4.000000 0.000000 15.000000
v 4.000000 0.000000 16.000000
v 3.000000 -0.000000 1.000000
v 3.000000 -0.000000 2.000000
v 3.000000 -0.000000 3.000000
v 3.000000 -0.000000 8.000000
v 3.000000 0.000000 9.000000
v 3.000000 0.000000 10.000000
v 3.000000 0.000000 11.000000
v 2.999998 0.000000 12.000000
v 3.000000 0.000000 13.000000
v 3.000000 0.000000 14.000000
v 3.000000 0.000000 15.000000
v 3.000000 0.000000 16.000000
v 2.000000 -0.000000 1.000000
v 2.000000 -0.000000 2.000000
v 2.000000 -0.000000 3.000000
v 1.999998 -0.000000 4.000000
v 2.000000 -0.000000 5.000000
v 2.000000 -0.000000 6.000000
v 2.000000 -0.000000 7.000000
v 2.000000 -0.000000 8.000000
v 2.000000 0.000000 9.000000
v 2.000000 0.000000 10.000000
v 2.000000 0.000000 11.000000
v 2.000000 0.000000 12.000000
v 1.999998 0.000000 13.000000
v 2.000000 0.000000 14.000000
v 2.000000 0.000000 15.000000
v 2.000000 0.000000 16.000000
v 1.000000 -0.000000 1.000000
v 1.000000 -0.000000 2.000000
v 1.000000 -0.000000 3.000000
v 1.000000 -0.000000 4.000000
v 1.000000 -0.000000 5.000000
v 1.000000 -0.000000 6.000000
v 1.000000 -0.000000 7.000000
v 1.000000 -0.000000 8.000000
v 1.000000 0.000000 9.000000
v 1.000000 0.000000 10.000000
v 1.000000 0.000000 11.000000
v 1.000000 0.000000 12.000000
v 1.000000 0.000000 13.000000
v 1.000000 0.000000 14.000000
v 1.000000 0.000000 15.000000
v 1.000000 0.000000 16.000000
vn -0.0000 -1.0000 -0.0000
s 0
f 57//1 74//1 16//1 1//1
f 74//1 87//1 17//1 16//1
f 87//1 100//1 18//1 17//1
f 100//1 112//1 19//1 18//1
f 112//1 123//1 20//1 19//1
f 123//1 131//1 21//1 20//1
f 131//1 136//1 22//1 21//1
f 136//1 139//1 23//1 22//1
f 139//1 142//1 24//1 23//1
f 142//1 145//1 5//1 24//1
f 145//1 148//1 25//1 5//1
f 148//1 151//1 26//1 25//1
f 151//1 154//1 27//1 26//1
f 154//1 157//1 28//1 27//1
f 157//1 160//1 29//1 28//1
f 160//1 163//1 30//1 29//1
f 163//1 166//1 31//1 30//1
f 166//1 169//1 32//1 31//1
f 169//1 172//1 33//1 32//1
f 172//1 175//1 6//1 33//1
f 175//1 178//1 7//1 6//1
f 178//1 181//1 8//1 7//1
f 181//1 184//1 9//1 8//1
f 184//1 187//1 10//1 9//1
f 187//1 190//1 11//1 10//1
f 190//1 195//1 12//1 11//1
f 195//1 203//1 13//1 12//1
f 203//1 215//1 14//1 13//1
f 215//1 231//1 15//1 14//1
f 231//1 58//1 2//1 15//1
f 56//1 75//1 74//1 57//1
f 75//1 88//1 87//1 74//1
f 88//1 101//1 100//1 87//1
f 101//1 113//1 112//1 100//1
f 113//1 124//1 123//1 112//1
f 124//1 132//1 131//1 123//1
f 132//1 137//1 136//1 131//1
f 137//1 140//1 139//1 136//1
f 140//1 143//1 142//1 139//1
f 143//1 146//1 145//1 142//1
f 146//1 149//1 148//1 145//1
f 149//1 152//1 151//1 148//1
f 152//1 155//1 154//1 151//1
f 155//1 158//1 157//1 154//1
f 158//1 161//1 160//1 157//1
f 161//1 164//1 163//1 160//1
f 164//1 167//1 166//1 163//1
f 167//1 170//1 169//1 166//1
f 170//1 173//1 172//1 169//1
f 173//1 176//1 175//1 172//1
f 176//1 179//1 178//1 175//1
f 179//1 182//1 181//1 178//1
f 182//1 185//1 184//1 181//1
f 185//1 188//1 187//1 184//1
f 188//1 191//1 190//1 187//1
f 191//1 196//1 195//1 190//1
f 196//1 204//1 203//1 195//1
f 204//1 216//1 215//1 203//1
f 216//1 232//1 231//1 215//1
f 232//1 59//1 58//1 231//1
f 55//1 76//1 75//1 56//1
f 76//1 89//1 88//1 75//1
f 89//1 102//1 101//1 88//1
f 102//1 114//1 113//1 101//1
f 114//1 125//1 124//1 113//1
f 125//1 133//1 132//1 124//1
f 133//1 138//1 137//1 132//1
f 138//1 141//1 140//1 137//1
f 141//1 144//1 143//1 140//1
f 144//1 147//1 146//1 143//1
f 147//1 150//1 149//1 146//1
f 150//1 153//1 152//1 149//1
f 153//1 156//1 155//1 152//1
f 156//1 159//1 158//1 155//1
f 159//1 162//1 161//1 158//1
f 162//1 165//1 164//1 161//1
f 165//1 168//1 167//1 164//1
f 168//1 171//1 170//1 167//1
f 171//1 174//1 173//1 170//1
f 174//1 177//1 176//1 173//1
f 177//1 180//1 179//1 176//1
f 180//1 183//1 182//1 179//1
f 183//1 186//1 185//1 182//1
f 186//1 189//1 188//1 185//1
f 189//1 192//1 191//1 188//1
f 192//1 197//1 196//1 191//1
f 197//1 205//1 204//1 196//1
f 205//1 217//1 216//1 204//1
f 217//1 233//1 232//1 216//1
f 233//1 60//1 59//1 232//1
f 218//1 234//1 233//1 217//1
f 234//1 61//1 60//1 233//1
f 219//1 235//1 234//1 218//1
f 235//1 62//1 61//1 234//1
f 220//1 236//1 235//1 219//1
f 236//1 63//1 62//1 235//1
f 221//1 237//1 236//1 220//1
f 237//1 64//1 63//1 236//1
f 53//1 78//1 77//1 54//1
f 78//1 91//1 90//1 77//1
f 222//1 238//1 237//1 221//1
f 238//1 65//1 64//1 237//1
f 52//1 79//1 78//1 53//1
f 79//1 92//1 91//1 78//1
f 92//1 104//1 103//1 91//1
f 207//1 223//1 222//1 206//1
f 223//1 239//1 238//1 222//1
f 239//1 66//1 65//1 238//1
f 51//1 80//1 79//1 52//1
f 80//1 93//1 92//1 79//1
f 93//1 105//1 104//1 92//1
f 105//1 116//1 115//1 104//1
f 208//1 224//1 223//1 207//1
f 224//1 240//1 239//1 223//1
f 240//1 67//1 66//1 239//1
f 50//1 81//1 80//1 51//1
f 81//1 94//1 93//1 80//1
f 94//1 106//1 105//1 93//1
f 106//1 117//1 116//1 105//1
f 209//1 225//1 224//1 208//1
f 225//1 241//1 240//1 224//1
f 241//1 68//1 67//1 240//1
f 49//1 82//1 81//1 50//1
f 82//1 95//1 94//1 81//1
f 95//1 107//1 106//1 94//1
f 107//1 118//1 117//1 106//1
f 210//1 226//1 225//1 209//1
f 226//1 242//1 241//1 225//1
f 242//1 69//1 68//1 241//1
f 48//1 83//1 82//1 49//1
f 83//1 96//1 95//1 82//1
f 96//1 108//1 107//1 95//1
f 108//1 119//1 118//1 107//1
f 119//1 127//1 126//1 118//1
f 199//1 211//1 210//1 198//1
f 211//1 227//1 226//1 210//1
f 227//1 243//1 242//1 226//1
f 243//1 70//1 69//1 242//1
f 47//1 84//1 83//1 48//1
f 84//1 97//1 96//1 83//1
f 97//1 109//1 108//1 96//1
f 109//1 120//1 119//1 108//1
f 120//1 128//1 127//1 119//1
f 200//1 212//1 211//1 199//1
f 212//1 228//1 227//1 211//1
f 228//1 244//1 243//1 227//1
f 244//1 71//1 70//1 243//1
f 46//1 85//1 84//1 47//1
f 85//1 98//1 97//1 84//1
f 98//1 110//1 109//1 97//1
f 110//1 121//1 120//1 109//1
f 121//1 129//1 128//1 120//1
f 201//1 213//1 212//1 200//1
f 213//1 229//1 228//1 212//1
f 229//1 245//1 244//1 228//1
f 245//1 72//1 71//1 244//1
f 45//1 86//1 85//1 46//1
f 86//1 99//1 98//1 85//1
f 99//1 111//1 110//1 98//1
f 111//1 122//1 121//1 110//1
f 122//1 130//1 129//1 121//1
f 130//1 135//1 134//1 129//1
f 194//1 202//1 201//1 193//1
f 202//1 214//1 213//1 201//1
f 214//1 230//1 229//1 213//1
f 230//1 246//1 245//1 229//1
f 246//1 73//1 72//1 245//1
f 3//1 39//1 86//1 45//1
f 39//1 38//1 99//1 86//1
f 38//1 37//1 111//1 99//1
f 37//1 36//1 122//1 111//1
f 36//1 35//1 130//1 122//1
f 35//1 34//1 135//1 130//1
f 44//1 43//1 202//1 194//1
f 43//1 42//1 214//1 202//1
f 42//1 41//1 230//1 214//1
f 41//1 40//1 246//1 230//1
f 40//1 4//1 73//1 246//1
